<svg width="180" height="180" viewBox="0 0 180 180" fill="none" xmlns="http://www.w3.org/2000/svg">
<path d="M115.457 97.8714V86.6469H143.241V114.847H134.857L132.64 110.343C130.1 112.607 127.097 114.2 123.633 115.124C120.168 116.094 115.618 116.579 109.983 116.579C88.4117 116.579 77.626 107.826 77.626 90.3191C77.626 80.4803 81.1365 73.3207 88.1576 68.8401C93.6082 65.3757 100.86 63.6436 109.914 63.6436C120.723 63.6436 128.829 65.1679 134.234 68.2165C139.638 71.219 142.733 75.9305 143.518 82.3511H121.485C120.884 79.4872 119.152 77.6165 116.288 76.7388C114.949 76.3231 113.193 76.1153 111.022 76.1153C102.338 76.1153 97.9964 80.7806 97.9964 90.1113C97.9964 99.4419 102.847 104.107 112.547 104.107C118.321 104.107 121.97 102.029 123.494 97.8714H115.457Z" fill="white"/>
<path d="M18 114.847V104.385L47.6549 77.8477H20.0093V65.376H73.9841V76.1848L45.022 102.375H73.2219V114.847H18Z" fill="white"/>
<circle cx="155.13" cy="108.391" r="6.49568" fill="white"/>
</svg>
